<svg height="512pt" viewBox="-1 0 512 512" width="512pt" xmlns="http://www.w3.org/2000/svg"><path d="m495 0c-182.214844 0-332.835938 129.476562-367.476562 300h-102.523438c-8.285156 0-15 6.714844-15 15s6.714844 15 15 15h5v30.363281c-16.9375 2.433594-30 17.035157-30 34.636719v82c0 19.300781 15.699219 35 35 35h200c19.300781 0 35-15.699219 35-35v-82c0-17.601562-13.0625-32.203125-30-34.636719v-30.363281h5c8.285156 0 15-6.714844 15-15s-6.714844-15-15-15h-86.8125c2.242188-10.109375 4.945312-20.117188 8.101562-30 91.773438 0 128.308594 4.15625 184.34375-18.546875 5.664063-2.296875 9.367188-7.792969 9.367188-13.902344v-44.523437l34.878906 23.253906c5.394532 3.597656 12.492188 3.320312 17.589844-.6875 60.050781-47.203125 97.53125-120.023438 97.53125-200.59375 0-8.285156-6.714844-15-15-15zm-372.3125 330c-1.1875 9.9375-1.988281 19.941406-2.382812 30h-60.304688v-30zm117.3125 147c0 2.757812-2.242188 5-5 5h-200c-2.757812 0-5-2.242188-5-5v-82c0-2.757812 2.242188-5 5-5h200c2.757812 0 5 2.242188 5 5zm-30-147v30h-59.679688c.433594-10.066406 1.300782-20.070312 2.59375-30zm192.257812-144.855469-48.9375-32.625c-9.960937-6.644531-23.320312.527344-23.320312 12.480469v62.203125c-44.386719 15.714844-71.207031 12.796875-152.589844 12.796875 51.753906-121.722656 169.542969-203.6875 302.078125-209.652344-4.023437 60.019532-31.554687 115.300782-77.230469 154.796875zm0 0"/></svg>